<svg xmlns="http://www.w3.org/2000/svg" width="1280" height="640" viewBox="0 0 1280 640" role="img" aria-labelledby="title desc">
  <title id="title">remote-latexmk</title>
  <desc id="desc">Keep TeX Live on a private server and compile through lightweight native, Docker, or AI agent clients.</desc>
  <defs>
    <linearGradient id="background" x1="0" y1="0" x2="1" y2="1">
      <stop offset="0" stop-color="#07111f"/>
      <stop offset="0.55" stop-color="#0d1b2e"/>
      <stop offset="1" stop-color="#14243a"/>
    </linearGradient>
    <linearGradient id="accent" x1="0" y1="0" x2="1" y2="0">
      <stop offset="0" stop-color="#64d8ff"/>
      <stop offset="1" stop-color="#8ff0c8"/>
    </linearGradient>
    <filter id="shadow" x="-30%" y="-30%" width="160%" height="160%">
      <feDropShadow dx="0" dy="16" stdDeviation="20" flood-color="#02060d" flood-opacity="0.46"/>
    </filter>
    <pattern id="dots" width="32" height="32" patternUnits="userSpaceOnUse">
      <circle cx="2" cy="2" r="1.4" fill="#9bb8d5" opacity="0.12"/>
    </pattern>
  </defs>

  <rect width="1280" height="640" rx="28" fill="url(#background)"/>
  <rect width="1280" height="640" rx="28" fill="url(#dots)"/>
  <circle cx="1060" cy="62" r="220" fill="#1a6f8f" opacity="0.12"/>
  <circle cx="1194" cy="545" r="250" fill="#2c8a6b" opacity="0.10"/>

  <g transform="translate(70 68)">
    <rect width="196" height="34" rx="17" fill="#122b42" stroke="#2e5774"/>
    <circle cx="19" cy="17" r="5" fill="#8ff0c8"/>
    <text x="33" y="22" fill="#b9cde0" font-family="ui-monospace, SFMono-Regular, Menlo, Consolas, monospace" font-size="14" font-weight="600" letter-spacing="1.2">SELF-HOSTED LATEX</text>

    <text x="0" y="125" fill="#f4f8fc" font-family="Inter, ui-sans-serif, system-ui, sans-serif" font-size="68" font-weight="760" letter-spacing="-2.4">remote-latexmk</text>
    <rect x="2" y="149" width="94" height="6" rx="3" fill="url(#accent)"/>

    <text x="0" y="221" fill="#dbe9f5" font-family="Inter, ui-sans-serif, system-ui, sans-serif" font-size="29" font-weight="650">Keep TeX Live on your server.</text>
    <text x="0" y="263" fill="#9eb8cf" font-family="Inter, ui-sans-serif, system-ui, sans-serif" font-size="29">Not on every laptop or agent.</text>

    <g transform="translate(0 330)" font-family="Inter, ui-sans-serif, system-ui, sans-serif" font-size="15" font-weight="600">
      <rect width="172" height="42" rx="21" fill="#122b42" stroke="#2e5774"/>
      <text x="22" y="27" fill="#dbe9f5">Docker Compose</text>
      <rect x="184" width="232" height="42" rx="21" fill="#122b42" stroke="#2e5774"/>
      <text x="206" y="27" fill="#dbe9f5">Dependency-aware upload</text>
      <rect x="428" width="174" height="42" rx="21" fill="#122b42" stroke="#2e5774"/>
      <text x="450" y="27" fill="#dbe9f5">MCP + Skills</text>
    </g>
  </g>

  <g transform="translate(744 132)" filter="url(#shadow)" font-family="Inter, ui-sans-serif, system-ui, sans-serif">
    <rect width="456" height="376" rx="28" fill="#0c1726" stroke="#2e4b65" stroke-width="2"/>
    <rect x="1" y="1" width="454" height="54" rx="27" fill="#13243a"/>
    <circle cx="26" cy="28" r="6" fill="#ff806f"/>
    <circle cx="47" cy="28" r="6" fill="#ffd166"/>
    <circle cx="68" cy="28" r="6" fill="#73dfb3"/>
    <text x="91" y="34" fill="#8faac1" font-size="14" font-family="ui-monospace, SFMono-Regular, Menlo, Consolas, monospace">private compilation path</text>

    <g transform="translate(35 91)">
      <rect width="122" height="92" rx="18" fill="#11253a" stroke="#31536f"/>
      <rect x="31" y="19" width="60" height="40" rx="5" fill="#1d3b55" stroke="#68d5fb"/>
      <rect x="21" y="65" width="80" height="7" rx="3.5" fill="#68d5fb" opacity="0.76"/>
      <text x="61" y="112" fill="#aec5d8" font-size="14" text-anchor="middle">small client</text>
    </g>

    <path d="M174 137 H232" fill="none" stroke="#64d8ff" stroke-width="3" stroke-linecap="round"/>
    <path d="M224 130 L235 137 L224 144" fill="none" stroke="#64d8ff" stroke-width="3" stroke-linecap="round" stroke-linejoin="round"/>
    <text x="203" y="123" fill="#7090aa" font-size="12" text-anchor="middle">sources</text>

    <g transform="translate(246 82)">
      <rect width="174" height="110" rx="20" fill="#123044" stroke="#4bbd9a"/>
      <path d="M39 27 H135 M31 49 H143 M39 71 H135" stroke="#8ff0c8" stroke-width="7" stroke-linecap="round" opacity="0.82"/>
      <text x="87" y="132" fill="#c1d8e7" font-size="14" text-anchor="middle">private TeX server</text>
    </g>

    <path d="M333 220 V259" fill="none" stroke="#8ff0c8" stroke-width="3" stroke-linecap="round"/>
    <path d="M326 251 L333 262 L340 251" fill="none" stroke="#8ff0c8" stroke-width="3" stroke-linecap="round" stroke-linejoin="round"/>

    <g transform="translate(217 273)">
      <rect width="232" height="66" rx="18" fill="#11253a" stroke="#31536f"/>
      <path d="M22 17 H53 L68 32 V51 H22 Z" fill="#f4f8fc" opacity="0.95"/>
      <path d="M53 17 V32 H68" fill="none" stroke="#31536f" stroke-width="2"/>
      <text x="82" y="28" fill="#f0f6fb" font-size="15" font-weight="650">PDF + diagnostics</text>
      <text x="82" y="49" fill="#8faac1" font-size="12">bounded logs · artifacts</text>
    </g>

    <g transform="translate(35 262)">
      <rect width="148" height="76" rx="16" fill="#101f31" stroke="#29445d"/>
      <text x="17" y="27" fill="#64d8ff" font-size="13" font-family="ui-monospace, SFMono-Regular, Menlo, Consolas, monospace">$ latexmk</text>
      <text x="17" y="50" fill="#8faac1" font-size="12">no local TeX Live</text>
    </g>
  </g>

  <text x="70" y="592" fill="#69879f" font-family="ui-monospace, SFMono-Regular, Menlo, Consolas, monospace" font-size="14">native client · Docker client · Codex · Claude Code · OpenCode</text>
</svg>
