<svg xmlns="http://www.w3.org/2000/svg" width="1280" height="640" viewBox="0 0 1280 640" role="img" aria-labelledby="title desc">
  <title id="title">remote-latexmk</title>
  <desc id="desc">A CLI client or a local coding agent with an MCP interface sends source files to a private TeX server and receives PDFs and diagnostics.</desc>
  <defs>
    <linearGradient id="background" x1="0" y1="0" x2="1" y2="1">
      <stop offset="0" stop-color="#07111f"/>
      <stop offset="0.55" stop-color="#0d1b2e"/>
      <stop offset="1" stop-color="#14243a"/>
    </linearGradient>
    <linearGradient id="accent" x1="0" y1="0" x2="1" y2="0">
      <stop offset="0" stop-color="#64d8ff"/>
      <stop offset="1" stop-color="#8ff0c8"/>
    </linearGradient>
    <filter id="shadow" x="-30%" y="-30%" width="160%" height="160%">
      <feDropShadow dx="0" dy="16" stdDeviation="20" flood-color="#02060d" flood-opacity="0.46"/>
    </filter>
    <pattern id="dots" width="32" height="32" patternUnits="userSpaceOnUse">
      <circle cx="2" cy="2" r="1.4" fill="#9bb8d5" opacity="0.12"/>
    </pattern>
  </defs>

  <rect width="1280" height="640" rx="28" fill="url(#background)"/>
  <rect width="1280" height="640" rx="28" fill="url(#dots)"/>
  <circle cx="1060" cy="62" r="220" fill="#1a6f8f" opacity="0.12"/>
  <circle cx="1194" cy="545" r="250" fill="#2c8a6b" opacity="0.10"/>

  <g transform="translate(70 68)">
    <rect width="212" height="34" rx="17" fill="#122b42" stroke="#2e5774"/>
    <circle cx="19" cy="17" r="5" fill="#8ff0c8"/>
    <text x="33" y="22" fill="#b9cde0" font-family="ui-monospace, SFMono-Regular, Menlo, Consolas, monospace" font-size="14" font-weight="600" letter-spacing="1.2">SELF-HOSTED LATEX</text>

    <text x="0" y="125" fill="#f4f8fc" font-family="Inter, ui-sans-serif, system-ui, sans-serif" font-size="68" font-weight="760" letter-spacing="-2.4">remote-latexmk</text>
    <rect x="2" y="149" width="94" height="6" rx="3" fill="url(#accent)"/>

    <text x="0" y="221" fill="#dbe9f5" font-family="Inter, ui-sans-serif, system-ui, sans-serif" font-size="29" font-weight="650">Keep TeX Live on your server.</text>
    <text x="0" y="263" fill="#9eb8cf" font-family="Inter, ui-sans-serif, system-ui, sans-serif" font-size="29">Not on every laptop or agent.</text>

    <g transform="translate(0 330)" font-family="Inter, ui-sans-serif, system-ui, sans-serif" font-size="15" font-weight="600">
      <rect width="172" height="42" rx="21" fill="#122b42" stroke="#2e5774"/>
      <text x="22" y="27" fill="#dbe9f5">Docker Compose</text>
      <rect x="184" width="232" height="42" rx="21" fill="#122b42" stroke="#2e5774"/>
      <text x="206" y="27" fill="#dbe9f5">Dependency-aware upload</text>
      <rect x="428" width="132" height="42" rx="21" fill="#122b42" stroke="#2e5774"/>
      <text x="450" y="27" fill="#dbe9f5">MCP + Skills</text>
    </g>
  </g>

  <g transform="translate(732 132)" filter="url(#shadow)" font-family="Inter, ui-sans-serif, system-ui, sans-serif">
    <rect width="480" height="376" rx="28" fill="#0c1726" stroke="#2e4b65" stroke-width="2"/>
    <rect x="1" y="1" width="478" height="54" rx="27" fill="#13243a"/>
    <circle cx="26" cy="28" r="6" fill="#ff806f"/>
    <circle cx="47" cy="28" r="6" fill="#ffd166"/>
    <circle cx="68" cy="28" r="6" fill="#73dfb3"/>
    <text x="91" y="34" fill="#8faac1" font-size="14" font-family="ui-monospace, SFMono-Regular, Menlo, Consolas, monospace">private compilation path</text>

    <g transform="translate(35 91)">
      <rect width="122" height="92" rx="18" fill="#11253a" stroke="#31536f"/>
      <rect x="31" y="19" width="60" height="40" rx="5" fill="#1d3b55" stroke="#68d5fb"/>
      <path d="M31 28 H91" fill="none" stroke="#68d5fb" opacity="0.55"/>
      <circle cx="38" cy="24" r="2" fill="#64d8ff"/>
      <circle cx="45" cy="24" r="2" fill="#8ff0c8"/>
      <text x="42" y="48" fill="#bde9f5" font-size="12" font-family="ui-monospace, SFMono-Regular, Menlo, Consolas, monospace">&gt;_</text>
      <rect x="21" y="65" width="80" height="7" rx="3.5" fill="#68d5fb" opacity="0.76"/>
      <text x="61" y="112" fill="#aec5d8" font-size="14" text-anchor="middle">CLI / JSON</text>
    </g>

    <path d="M174 137 H256" fill="none" stroke="#64d8ff" stroke-width="3" stroke-linecap="round"/>
    <path d="M248 130 L261 137 L248 144" fill="none" stroke="#64d8ff" stroke-width="3" stroke-linecap="round" stroke-linejoin="round"/>
    <text x="216" y="123" fill="#7090aa" font-size="12" text-anchor="middle">sources</text>

    <path d="M205 332 H226 V180 H263" fill="none" stroke="#8ff0c8" stroke-width="3" stroke-linecap="round" stroke-linejoin="round"/>
    <path d="M255 173 L266 180 L255 187" fill="none" stroke="#8ff0c8" stroke-width="3" stroke-linecap="round" stroke-linejoin="round"/>

    <g transform="translate(270 82)">
      <rect width="174" height="110" rx="20" fill="#123044" stroke="#4bbd9a"/>
      <rect x="48" y="17" width="78" height="68" rx="8" fill="#16394a" stroke="#8ff0c8"/>
      <path d="M48 39 H126 M48 62 H126" fill="none" stroke="#8ff0c8" opacity="0.72"/>
      <circle cx="59" cy="28" r="3" fill="#8ff0c8"/>
      <circle cx="59" cy="51" r="3" fill="#8ff0c8"/>
      <circle cx="59" cy="74" r="3" fill="#8ff0c8"/>
      <path d="M70 28 H114 M70 51 H114 M70 74 H114" fill="none" stroke="#8ff0c8" stroke-width="3" stroke-linecap="round"/>
      <text x="87" y="132" fill="#c1d8e7" font-size="14" text-anchor="middle">private TeX server</text>
    </g>

    <path d="M357 220 V259" fill="none" stroke="#8ff0c8" stroke-width="3" stroke-linecap="round"/>
    <path d="M350 251 L357 262 L364 251" fill="none" stroke="#8ff0c8" stroke-width="3" stroke-linecap="round" stroke-linejoin="round"/>

    <g transform="translate(276 273)">
      <rect width="172" height="66" rx="18" fill="#11253a" stroke="#31536f"/>
      <path d="M14 16 H32 L42 26 V50 H14 Z" fill="#dbe9f5" fill-opacity="0.12" stroke="#dbe9f5" stroke-width="2" stroke-linejoin="round"/>
      <path d="M32 16 V26 H42" fill="none" stroke="#dbe9f5" stroke-width="2" stroke-linejoin="round"/>
      <text x="50" y="28" fill="#f0f6fb" font-size="13" font-weight="650">PDF + diagnostics</text>
      <text x="50" y="49" fill="#8faac1" font-size="11">logs · artifacts</text>
    </g>

    <g transform="translate(35 263)">
      <rect width="170" height="88" rx="17" fill="#101f31" stroke="#31536f"/>
      <path d="M36 18 V13" fill="none" stroke="#64d8ff" stroke-width="2" stroke-linecap="round"/>
      <circle cx="36" cy="11" r="2.5" fill="#64d8ff"/>
      <rect x="15" y="18" width="42" height="38" rx="8" fill="#163049" stroke="#64d8ff"/>
      <rect x="11" y="29" width="4" height="14" rx="2" fill="#31536f" stroke="#64d8ff"/>
      <rect x="57" y="29" width="4" height="14" rx="2" fill="#31536f" stroke="#64d8ff"/>
      <circle cx="26" cy="31" r="3" fill="#8ff0c8"/>
      <circle cx="46" cy="31" r="3" fill="#8ff0c8"/>
      <rect x="24" y="41" width="24" height="7" rx="3" fill="#102335" stroke="#8faac1"/>
      <path d="M30 43.5 V45.5 M36 43.5 V45.5 M42 43.5 V45.5" fill="none" stroke="#8ff0c8" stroke-width="1.5" stroke-linecap="round"/>
      <text x="67" y="31" fill="#f0f6fb" font-size="13" font-weight="650">coding agent</text>
      <text x="67" y="48" fill="#8faac1" font-size="11">local workspace</text>

      <g transform="translate(52 56)">
        <rect width="108" height="26" rx="9" fill="#123044" stroke="#4bbd9a"/>
        <path d="M14 9 H24 M15.5 11 L18 17 M24.5 11 L20 17" fill="none" stroke="#8ff0c8" stroke-width="1.3" stroke-linecap="round"/>
        <circle cx="12" cy="9" r="2.5" fill="#8ff0c8"/>
        <circle cx="26" cy="9" r="2.5" fill="#8ff0c8"/>
        <circle cx="19" cy="18" r="2.5" fill="#8ff0c8"/>
        <text x="39" y="17" fill="#d7f3e8" font-size="11" font-weight="650">local MCP</text>
      </g>
      <path d="M160 69 H170" fill="none" stroke="#8ff0c8" stroke-width="3" stroke-linecap="round"/>
    </g>
  </g>

  <text x="70" y="592" fill="#69879f" font-family="ui-monospace, SFMono-Regular, Menlo, Consolas, monospace" font-size="14">native client · Docker client · Codex · Claude Code · OpenCode</text>
</svg>
